<?xml version="1.0" encoding="UTF-8" standalone="no"?>
<svg xmlns:rdf="http://www.w3.org/1999/02/22-rdf-syntax-ns#" xmlns="http://www.w3.org/2000/svg" height="36.124mm" width="36.124mm" version="1.1" xmlns:cc="http://creativecommons.org/ns#" xmlns:dc="http://purl.org/dc/elements/1.1/" viewBox="0 0 128.00104 128.00051">
 <circle cx="64.001" cy="64" r="64.001" fill="#69ab90"/>
 <circle cx="64.085" cy="64.083" r="42.971" fill="#4a856d"/>
 <circle cx="64.001" cy="64" r="37.949" fill="#d9ccb5"/>
 <path fill-rule="evenodd" fill="#e1eee9" d="m64.311 5.2027c-15.917-0.0951-30.901 6.0143-42.297 17.411-9.644 9.644-15.441 21.629-17.026 35.2-0.67006 5.7369-0.5107 8.2382 0.64347 10.105 1.1507 1.8612 3.4249 3.149 5.5615 3.149 0.98722 0 1.9386-0.26228 3.0452-0.84038 1.1586-0.60529 1.8574-1.2411 2.4937-2.2704 0.79457-1.2852 0.90909-1.8011 1.1381-5.1021 0.47883-6.9012 1.6169-11.749 4.005-17.062 2.4555-5.4634 5.301-9.5916 9.5135-13.805 6.8213-6.8213 15.13-11.141 24.787-12.887 3.4249-0.6191 11.015-0.68351 14.953-0.12635 3.4428 0.48699 4.4984 0.34055 6.3481-0.88446 2.5756-1.7059 3.6144-5.2162 2.3537-7.9532-1.345-2.9219-3.165-3.8706-8.649-4.5119-2.304-0.2695-4.596-0.4095-6.871-0.4231zm48.799 33.074c-3.6389-0.0167-6.6202 2.8979-6.6202 6.4702 0 4.9481 4.8624 8.1224 9.2627 6.0472 1.7758-0.83744 2.6468-1.713 3.3302-3.3488 1.7958-4.2982-1.3632-9.1478-5.973-9.1686zm-6.6455 50.306c-1.8089 0.0287-3.2552 0.89689-4.9072 2.8179-4.0831 4.7483-5.0657 5.7999-7.0837 7.5812-6.0836 5.3693-13.897 9.1442-22.35 10.798-4.148 0.81126-12.804 0.72705-17.001-0.16553-8.8295-1.8778-15.896-5.4994-22.652-11.609-3.4712-3.1388-4.5921-3.771-6.685-3.771-3.6521 0-6.4471 2.8341-6.4626 6.5536-0.01154 2.8111 0.78192 4.015 5.3001 8.0376 8.8557 7.8844 20.747 13.194 32.607 14.559 3.2817 0.37766 9.806 0.38602 13.176 0.0177 10.723-1.1723 21.082-5.2921 29.672-11.8 2.8661-2.1714 8.7727-7.9998 10.807-10.665 2.479-3.2464 3.0147-5.0679 2.2792-7.7566-0.48979-1.7903-2.7682-3.8797-4.7483-4.3547-0.70468-0.16905-1.3482-0.25346-1.9511-0.24389z"/>
 <g fill="#fff">
  <path d="m115.71 72.61c-1.0127-0.0447-1.543 0.72998-2.0903 2.7813-0.3222 1.0306-0.36075 1.5153-0.70486 2.5359l-0.50284 1.5094-0.98575-0.34766-0.98576-0.34679 0.21415 1.3976c0.55593 3.6249 1.212 7.3784 1.284 7.3478 0.77038-0.62132 3.556-2.9529 6.764-5.5758 0 0-0.53223-0.19135-1.1262-0.40574l-1.0273-0.39968 0.54013-1.6499c0.29698-0.9075 0.66712-2.4862 0.82275-3.5087 0.0445-0.29211 0.0661-0.51442 0.0876-0.73779 0.0612-1.479-0.39204-2.0925-1.5051-2.444-0.29124-0.092-0.55092-0.14575-0.78463-0.15606z"/>
  <path d="m95.495 22.566c-0.70228 0.73105-1.6206 0.53609-3.432-0.57125-0.94425-0.52374-1.3066-0.84801-2.2598-1.3494l-1.4054-0.74574-0.47372 0.93173-0.47434 0.93111-0.80917-1.1594c-2.0984-3.0076-4.213-6.1772-4.1397-6.2047 0.98633-0.0817 4.6116-0.31574 8.7434-0.63059 0 0-0.25324 0.50568-0.53534 1.0707l-0.46795 0.99814 1.5293 0.82169c0.84104 0.45202 2.1982 1.3395 3.0163 1.9723 0.23375 0.18076 0.40278 0.32678 0.5724 0.47368 1.0647 1.0285 1.1598 1.7852 0.59664 2.8076-0.14735 0.26753-0.29824 0.48558-0.46032 0.6543z"/>
  <path d="m100.68 24.418c-0.41116 0.0497-0.78285 0.27452-1.1522 0.6511-1.1247 1.1466-0.79426 2.2417 1.414 4.6809 1.1056 1.2212 2.684 2.99 3.5069 3.9309 1.6663 1.9055 2.4818 2.1423 3.6214 1.0508 1.2686-1.2149 0.95797-2.245-1.6386-5.4359-2.9317-3.6029-4.5179-5.0266-5.7515-4.8775z"/>
  <path d="m114.85 65.305c-0.0768-1.2476-0.24583-3.612-0.37543-5.2544-0.25887-3.2801 0.14812-4.3493 1.7388-4.5703 2.0899-0.29035 2.7244 1.3726 2.8855 7.5639 0.10703 4.1126-0.27587 5.1176-2.0227 5.3045-1.569 0.16821-2.0704-0.51749-2.2262-3.044z"/>
 </g>
 <path d="m91.66 60.795c-0.93701-0.008-1.9364 0.57493-3.4194 1.8857-4.5166 3.992-9.731 6.8036-15.334 8.2684-3.9675 1.0372-10.902 1.303-15.065 0.57826-6.5683-1.1435-11.892-3.7156-17.722-8.5623-2.1236-1.7655-2.7229-2.1137-3.6344-2.1137-1.5619 0-2.6737 1.1688-2.6737 2.8107 0 1.1208 0.1712 1.3926 1.9498 3.0942 1.0724 1.026 2.8609 2.5027 3.9751 3.2824 1.1142 0.77975 2.1341 1.5093 2.2663 1.6212 0.13241 0.11197 0.07916 0.86576-0.11878 1.6741-0.65399 2.671-1.899 4.6351-3.415 5.5713-0.50004 0.34112-1.005 0.56308-1.4739 0.61382-2.9014 0.3139-4.1706 1.9141-3.2373 4.0817 0.74121 1.7215 2.9369 2.1278 5.3405 1.3265 0.10942-0.0376 0.21878-0.0751 0.32772-0.11704 0.10578-0.0398 0.21192-0.0821 0.31818-0.12658 0.21898-0.0932 0.43684-0.19232 0.65283-0.30257 0.02255-0.0114 0.04507-0.0213 0.06762-0.0329 0.80513-0.4182 1.5854-0.95459 2.3201-1.5961 0.06231-0.0557 0.12467-0.11433 0.18727-0.1734 0.0908-0.0825 0.1795-0.16916 0.26876-0.25489 0.7607-0.76949 1.5238-1.7523 2.1718-2.77 0.09146-0.14364 0.17441-0.28823 0.26096-0.43262 0.04771-0.0815 0.09926-0.1609 0.14566-0.24276 0.67702-1.1947 1.2064-2.4123 1.3811-3.2858 0.10325-0.51634 0.29812-0.93892 0.43262-0.93892 0.13454-0.00001 1.1642 0.33163 2.288 0.73695 2.7272 0.98358 6.5825 1.8868 9.1233 2.1371l2.0721 0.20374v4.889c0 4.7949 0.01465 4.9068 0.76034 5.7932 0.41819 0.49698 1.0597 0.94882 1.4253 1.004 1.1983 0.18067 2.0095-0.11877 2.7683-1.0204 0.72861-0.86617 0.74734-1.0054 0.74734-5.7724v-4.8846l2.1353-0.19854c2.6646-0.24764 7.3558-1.3941 9.8495-2.4076 1.0409-0.42294 1.9928-0.7069 2.1154-0.63117 0.12256 0.0757 0.30511 0.64675 0.40574 1.2693 0.33341 2.0621 2.1929 5.4333 3.9344 7.1334 3.2076 3.1317 7.4636 3.7675 8.7367 1.3057 1.0782-2.085-0.06861-3.7616-2.9252-4.2768-1.2731-0.22964-2.7375-1.7153-3.5633-3.6153-0.69673-1.6033-1.3079-4.6702-0.98837-4.9592 0.13916-0.12572 1.1234-0.85383 2.1874-1.6178 2.7792-1.9955 5.3418-4.5654 5.5651-5.5815 0.22086-1.0056-0.45672-2.5324-1.3317-3.0006-0.43971-0.23532-0.8529-0.36123-1.2788-0.365z" fill="#2a4c3d"/>
</svg>
