<?xml version="1.0" encoding="UTF-8"?>
<svg width="230.16mm" height="39.735mm" version="1.1" viewBox="0 0 815.52 140.8" xmlns="http://www.w3.org/2000/svg">
 <g transform="translate(495.3 730.12)">
  <g fill="#3f3f3f">
   <g transform="translate(-173.28 -703.95)" fill="#3f3f3f">
    <g fill="#3f3f3f">
     <path d="m-278.88 51.115c0 4.9562-0.18356 9.5452-1.8356 12.299-2.2027 3.8548-6.4247 4.4055-10.647 4.4055h-8.2603v-74.526h8.2603c4.2219 0 8.4439 0.55069 10.647 4.4055 1.6521 2.937 1.8356 7.526 1.8356 12.299v41.118zm22.578-36.162c0-6.0575 0-12.299-1.1014-17.806-1.2849-6.9754-4.2219-12.115-8.4438-15.97-8.6274-7.7096-23.496-7.3425-24.964-7.3425h-31.206v113.44h30.104c5.1397 0 10.096-0.18356 14.501-1.2849 4.2219-1.1014 8.0767-2.937 11.197-5.5069 4.2219-3.4877 7.3425-8.9945 8.811-16.521 1.1014-5.5069 1.1014-11.748 1.1014-17.622v-31.389z"/>
     <path d="m-222.65 38.265c0-3.8548 0.18357-8.4439 1.8356-11.564 1.4685-2.3863 3.6712-4.2219 7.526-4.2219 4.4055 0 6.7918 2.0192 8.0767 4.9562s1.2849 7.3425 1.2849 10.83h-18.723zm-20.375 13.767c0 12.666 2.0192 22.395 8.0767 28.636 4.7726 4.7726 11.564 7.526 22.395 7.526 4.4055 0.18356 9.5452-0.55069 13.767-1.8356 3.6712-0.91781 7.1589-2.3863 10.647-4.2219l-4.589-16.337c-4.0384 1.2849-7.8932 2.7534-11.932 3.4877-2.3863 0.55069-4.9562 0.73425-7.7096 0.73425-4.0384-0.18356-7.1589-1.8356-8.6274-4.589-1.4685-3.3041-1.6521-7.526-1.6521-11.014h37.08c0-6.4247 0.55069-14.685 0-22.762-0.55068-7.1589-2.3863-13.033-5.6904-17.622-4.589-6.0575-11.564-9.7288-21.66-9.7288-8.6274 0-15.419 2.7534-20.008 7.1589-7.7096 7.526-10.096 19.641-10.096 32.674v7.8932z"/>
     <path d="m-173.83 52.216c0 9.9123 0.91781 21.66 8.2603 28.636 6.0576 6.0575 14.501 7.3425 22.578 7.3425 7.1589 0 15.052-1.4685 21.11-4.7726l-3.6712-16.704c-3.8548 1.1014-5.874 1.8356-9.5452 2.3863-3.1206 0.55069-4.0384 0.73425-7.3425 0.73425-4.9562-0.18356-8.0767-2.3863-9.5452-5.5069-1.2849-2.3863-1.4685-5.5069-1.4685-9.1781v-17.622c0-4.4055 0.36712-8.4439 2.3863-11.197 1.4685-2.2027 3.8548-3.3041 7.7096-3.4877 5.5069-0.18356 12.115 1.4685 17.071 3.1206l3.4877-17.255c-2.3863-1.1014-6.6082-2.5699-10.096-3.3041-3.4877-0.73425-6.9754-1.1014-10.463-1.1014-9.3617 0.18356-18.54 2.5699-24.414 10.647-6.0576 8.2603-6.0576 19.274-6.0576 29.186v8.0767z"/>
     <path d="m-92.864 38.265c0-3.8548 0.18356-8.4439 1.8356-11.564 1.4685-2.3863 3.6712-4.2219 7.526-4.2219 4.4055 0 6.7918 2.0192 8.0767 4.9562s1.2849 7.3425 1.2849 10.83h-18.723zm-20.375 13.767c0 12.666 2.0192 22.395 8.0767 28.636 4.7726 4.7726 11.564 7.526 22.395 7.526 4.4055 0.18356 9.5452-0.55069 13.767-1.8356 3.6712-0.91781 7.1589-2.3863 10.647-4.2219l-4.5891-16.337c-4.0384 1.2849-7.8932 2.7534-11.932 3.4877-2.3863 0.55069-4.9562 0.73425-7.7096 0.73425-4.0384-0.18356-7.1589-1.8356-8.6274-4.589-1.4685-3.3041-1.6521-7.526-1.6521-11.014h37.08c0-6.4247 0.55069-14.685 0-22.762-0.55069-7.1589-2.3863-13.033-5.6904-17.622-4.5891-6.0575-11.564-9.7288-21.66-9.7288-8.6274 0-15.419 2.7534-20.008 7.1589-7.7096 7.526-10.096 19.641-10.096 32.674v7.8932z"/>
     <path d="m-21.65 87.276v-63.696c1.6521-0.55069 4.4055-0.91781 7.526-0.91781 4.5891 0 7.3425 1.4685 8.811 4.0384 2.2027 3.6712 1.8356 11.748 1.8356 16.704v43.871h20.375v-50.48c0-11.564-1.1014-19.825-6.7918-25.699-4.0382-4.2208-11.014-6.6071-20.559-6.7907-7.8932 0-18.723 1.1014-31.206 4.7726v78.197h20.008z"/>
     <path d="m36.393 54.602c0 9.3617-0.36712 21.293 6.6082 28.452 4.2219 4.4055 10.463 5.874 17.255 5.6904 5.6904 0 11.564-1.6521 16.704-4.4055l-4.222-16.703c-2.3863 0.91781-6.4247 2.7534-9.7288 2.5699-6.424-0.551-6.241-10.646-6.241-15.236v-31.022h16.153v-17.622h-16.153v-18.54h-20.375v18.54h-9.5452v17.622h9.5452v30.655z"/>
     <path d="m108.13 87.276v-63.329c2.2027-0.73425 4.4055-1.1014 6.4247-1.1014 1.4685 0 4.0384 0 6.4247 0.55069l2.57-18.355c-4.4-0.7347-8.44-0.9182-12.48-0.7347-7.71 0.1836-15.785 1.6521-22.944 4.5891v78.381h20.008z"/>
     <path d="m160.29 68.92c-2.937 1.2849-6.4247 2.5699-8.9945 1.2849-1.2849-0.73425-2.3863-2.2027-2.3863-4.7726v-1.2849c0-3.1206 1.1014-5.1397 2.5699-6.4247 1.652-1.4685 4.0384-2.2027 6.6082-3.1206l8.6274-2.7534v13.951l-6.4247 3.1206zm26.433-27.167c0-10.096-0.55068-20.559-5.874-27.901-2.2027-3.1206-5.5069-5.6904-9.9124-7.3425-4.2219-1.6521-8.9945-2.2027-13.767-2.2027-4.0384 0-8.6274 0.55069-13.033 1.4685-3.4877 0.73425-6.7918 1.6521-9.5452 2.937l3.6712 17.622c2.5699-0.73425 5.5069-1.6521 8.4438-2.2027 3.1206-0.73425 6.2411-0.91781 8.9945-0.91781 3.6712 0.18356 6.6082 1.1014 8.0767 2.7534 2.7534 2.937 2.937 6.6082 2.937 10.463l-18.356 4.9562c-6.2411 1.4685-11.197 4.2219-14.318 8.0767-3.1206 3.6712-4.7726 8.6274-4.7726 15.236v2.937c0 5.5069 1.2849 11.381 4.9562 15.419 2.7534 2.937 6.4247 4.5891 11.564 4.9562 4.0384 0.36712 8.0767-0.36712 11.748-1.8356 3.1206-1.2849 6.0576-2.937 9.1781-4.5891l0.36713 5.6904h19.641v-45.523z"/>
     <path d="m222.5-26.165h-20.008v113.44h20.008z"/>
     <path d="m257.04 38.265c0-3.8548 0.18356-8.4439 1.8356-11.564 1.4685-2.3863 3.6712-4.2219 7.526-4.2219 4.4055 0 6.7918 2.0192 8.0767 4.9562s1.2849 7.3425 1.2849 10.83h-18.723zm-20.375 13.767c0 12.666 2.0192 22.395 8.0767 28.636 4.7726 4.7726 11.564 7.526 22.395 7.526 4.4055 0.18356 9.5452-0.55069 13.767-1.8356 3.6712-0.91781 7.1589-2.3863 10.647-4.2219l-4.589-16.337c-4.0384 1.2849-7.8932 2.7534-11.932 3.4877-2.3863 0.55069-4.9562 0.73425-7.7096 0.73425-4.0384-0.18356-7.1589-1.8356-8.6274-4.589-1.4685-3.3041-1.6521-7.526-1.6521-11.014h37.08c0-6.4247 0.55068-14.685 0-22.762-0.55069-7.1589-2.3863-13.033-5.6904-17.622-4.589-6.0575-11.564-9.7288-21.66-9.7288-8.6274 0-15.419 2.7534-20.008 7.1589-7.7096 7.526-10.096 19.641-10.096 32.674v7.8932z"/>
     <path d="m366.62 10.915v-5.5069h-20.008l-11.014 46.992-13.216-46.992h-20.559v4.5891l23.496 69.57c-1.6521 6.9754-6.4247 16.888-17.622 16.888l1.4685 17.622c3.6712 0.73425 7.7096 0.73425 11.197 0 16.521-3.4877 21.11-20.192 25.332-34.326l20.926-68.836z"/>
     <path d="m392.92 38.265c0-3.8548 0.18356-8.4439 1.8356-11.564 1.4685-2.3863 3.6712-4.2219 7.526-4.2219 4.4055 0 6.7918 2.0192 8.0767 4.9562s1.2849 7.3425 1.2849 10.83h-18.723zm-20.375 13.767c0 12.666 2.0192 22.395 8.0767 28.636 4.7726 4.7726 11.564 7.526 22.395 7.526 4.4055 0.18356 9.5452-0.55069 13.767-1.8356 3.6712-0.91781 7.1589-2.3863 10.647-4.2219l-4.589-16.337c-4.0384 1.2849-7.8932 2.7534-11.932 3.4877-2.3863 0.55069-4.9562 0.73425-7.7096 0.73425-4.0384-0.18356-7.1589-1.8356-8.6274-4.589-1.4685-3.3041-1.6521-7.526-1.6521-11.014h37.08c0-6.4247 0.55068-14.685 0-22.762-0.55069-7.1589-2.3863-13.033-5.6904-17.622-4.5891-6.0575-11.564-9.7288-21.66-9.7288-8.6274 0-15.419 2.7534-20.008 7.1589-7.7096 7.526-10.096 19.641-10.096 32.674v7.8932z"/>
     <path d="m493.5 63.597c0-9.9123-4.0384-16.521-12.666-20.559-4.2219-1.8356-8.9945-3.8548-12.666-5.5069-2.3863-1.1014-4.5891-2.3863-6.2411-4.2219-1.1014-1.4685-1.8356-3.1206-1.6521-5.3233 0.36712-4.2219 3.8548-6.2411 8.2603-6.2411 5.5069 0 10.83 1.6521 16.704 3.1206l3.4877-16.153c-2.937-1.2849-6.0575-2.2027-9.7288-3.1206-3.8548-0.73425-8.0767-1.2849-12.482-1.2849-5.6904 0-10.463 1.1014-14.318 3.1206-7.526 3.8548-11.197 11.381-11.564 19.641-0.36712 9.5452 3.4877 16.704 11.564 22.027 5.5069 3.4877 11.748 5.874 17.071 8.811 2.3863 1.4685 4.589 3.4877 4.2219 6.6082 0 4.2219-4.0384 6.4247-8.0767 6.4247-2.3863 0.18356-4.7726-0.18356-6.9754-0.55069-4.589-0.73425-8.6274-2.0192-13.216-3.1206l-3.4877 15.97c2.5699 1.2849 6.0576 2.3863 9.1781 3.3041 4.589 1.1014 8.6274 1.6521 13.951 1.6521 8.9945 0 16.521-2.2027 21.477-6.9754 4.4055-4.0384 6.9754-9.5452 7.1589-17.622z"/>
    </g>
   </g>
  </g>
 </g>
</svg>
